#!OML:ASF F:\VICON\USERDATA\INSTALL\Justin_Nancy\Justin_Nancy.ASF
:FULLY-SPECIFIED
:DEGREES
253
root -0.704748 17.2523 5.50724 5.1417 38.6035 5.19068
lowerback 5.07517 -2.48194 -6.32751
upperback -0.222929 -3.62389 2.22685
thorax -2.54124 -1.71127 6.12096
lowerneck -15.5667 -2.7941 -9.21846
upperneck 24.5831 -2.20869 3.32216
head 10.6311 -1.43272 2.4512
rclavicle -9.39258e-015 0
rhumerus -39.1385 -21.0572 -73.0308
rradius 28.3463
rwrist 8.10362
rhand -14.0492 12.6336
rfingers 7.12502
rthumb 12.0816 -16.9976
lclavicle -9.39258e-015 0
lhumerus -26.0934 3.9748 85.8637
lradius 33.8215
lwrist -5.72465
lhand -17.3534 28.6967
lfingers 7.12502
lthumb 8.89437 58.4892
rfemur -27.1718 2.52498 17.3519
rtibia 20.0113
rfoot -5.39138 -1.23904
rtoes -3.33167
lfemur 8.79641 -1.97105 -30.0282
ltibia 23.1575
lfoot -12.8292 -5.81926
ltoes -9.26866
254
root -0.594298 17.2995 5.6843 5.2563 39.345 5.48051
lowerback 4.80907 -2.6714 -6.46085
upperback -0.238472 -3.86954 2.20574
thorax -2.36382 -1.83958 6.1706
lowerneck -15.4421 -2.82502 -9.34843
upperneck 24.6345 -2.21095 3.26133
head 10.6288 -1.45408 2.45194
rclavicle -2.08227e-014 -2.3059e-014
rhumerus -39.3395 -21.2417 -72.7194
rradius 28.1338
rwrist 8.42927
rhand -14.8163 13.4958
rfingers 7.12502
rthumb 11.3419 -16.1775
lclavicle -2.08227e-014 -2.3059e-014
lhumerus -26.3263 4.57309 85.6995
lradius 33.331
lwrist -6.48301
lhand -16.8669 26.2565
lfingers 7.12502
lthumb 9.36377 56.0285
rfemur -26.3931 2.76096 16.9315
rtibia 19.8187
rfoot -3.83151 -1.50368
rtoes -2.15951
lfemur 8.88175 -2.39559 -29.9671
ltibia 24.251
lfoot -11.7592 -6.68098
ltoes -10.0519
255
root -0.493019 17.3334 5.86361 5.20697 39.9946 5.58321
lowerback 4.58154 -2.81657 -6.5857
upperback -0.216024 -4.05515 2.22784
thorax -2.17432 -1.9396 6.25706
lowerneck -15.2492 -2.86173 -9.2823
upperneck 24.6788 -2.24677 3.07042
head 10.6084 -1.48802 2.36835
rclavicle 3.06128e-014 1.59028e-014
rhumerus -39.6146 -21.2992 -72.5608
rradius 28.4736
rwrist 7.36174
rhand -14.047 12.8347
rfingers 7.12502
rthumb 12.0838 -16.7964
lclavicle 3.06128e-014 1.59028e-014
lhumerus -26.3383 4.42787 86.0384
lradius 33.2399
lwrist -5.9176
lhand -17.2203 28.7073
lfingers 7.12502
lthumb 9.02275 58.4943
rfemur -25.6961 3.40359 16.5644
rtibia 19.7064
rfoot -3.13718 -1.90651
rtoes -2.93463
lfemur 8.89298 -3.0278 -29.7682
ltibia 25.5386
lfoot -10.4039 -7.54606
ltoes -9.48701
256
root -0.419668 17.3543 6.00622 4.6402 39.587 4.47759
lowerback 4.71951 -2.61874 -5.81655
upperback -0.477622 -3.75543 2.42109
thorax -2.60544 -1.77386 6.03054
lowerneck -15.1277 -2.83442 -9.22416
upperneck 24.996 -2.21075 2.99327
head 10.698 -1.48043 2.34058
rclavicle -8.02096e-014 2.22639e-014
rhumerus -40.1776 -21.3789 -72.4356
rradius 28.326
rwrist 8.04308
rhand -14.794 12.8649
rfingers 7.12502
rthumb 11.3634 -16.8073
lclavicle -8.02096e-014 2.22639e-014
lhumerus -26.4112 4.74833 86.0817
lradius 32.6773
lwrist -6.14364
lhand -17.4181 29.0883
lfingers 7.12502
lthumb 8.83191 58.8835
rfemur -25.6084 4.58898 17.4089
rtibia 19.7437
rfoot -2.55183 -1.93076
rtoes -4.42155
lfemur 8.25919 -3.51755 -28.8538
ltibia 27.1851
lfoot -8.74698 -7.71953
ltoes -8.68916
257
root -0.325307 17.3702 6.15618 4.24905 39.5885 3.75399
lowerback 4.70654 -2.55768 -5.14003
upperback -0.692308 -3.63276 2.53363
thorax -2.87243 -1.70659 5.76681
lowerneck -15.1687 -2.86899 -9.41417
upperneck 25.4212 -2.22253 3.08122
head 10.8696 -1.49986 2.40845
rclavicle -7.57867e-014 2.14687e-014
rhumerus -40.5314 -21.3283 -72.2352
rradius 28.3549
rwrist 7.38876
rhand -14.0031 12.1949
rfingers 7.12502
rthumb 12.1261 -17.4337
lclavicle -7.57867e-014 2.14687e-014
lhumerus -26.7772 4.91815 86.0939
lradius 32.2832
lwrist -6.34056
lhand -17.2382 29.3487
lfingers 7.12502
lthumb 9.00549 59.1364
rfemur -25.1831 4.6401 18.1557
rtibia 19.7998
rfoot -2.07758 -1.89574
rtoes -2.6851
lfemur 7.44492 -3.85523 -28.1425
ltibia 29.2747
lfoot -7.08895 -8.25693
ltoes -9.33115
258
root -0.217455 17.3845 6.32124 3.85 39.8731 3.36447
lowerback 4.57276 -2.61965 -4.75302
upperback -0.72055 -3.68342 2.64774
thorax -2.83561 -1.73793 5.66299
lowerneck -15.1941 -2.91566 -9.77366
upperneck 25.5823 -2.21185 3.17861
head 10.9426 -1.52039 2.50806
rclavicle -8.10048e-015 1.19271e-014
rhumerus -40.4917 -21.0375 -72.1195
rradius 28.542
rwrist 5.81491
rhand -12.3687 10.5333
rfingers 7.12502
rthumb 13.7017 -18.9957
lclavicle -8.10048e-015 1.19271e-014
lhumerus -27.098 5.01501 86.1352
lradius 31.8623
lwrist -6.29233
lhand -16.4903 29.5626
lfingers 7.12502
lthumb 9.72716 59.318
rfemur -24.344 4.05271 18.7326
rtibia 19.9467
rfoot -2.01526 -1.67166
rtoes -1.46125
lfemur 6.74262 -3.98641 -27.5725
ltibia 31.5507
lfoot -5.09285 -9.1767
ltoes -9.43414
259
root -0.115082 17.4037 6.48626 3.13519 39.931 2.5526
lowerback 4.42392 -2.56118 -4.2508
upperback -0.66341 -3.56115 2.93412
thorax -2.72008 -1.68751 5.66122
lowerneck -15.0184 -2.8968 -9.8539
upperneck 25.4547 -2.13582 3.0147
head 10.8563 -1.51081 2.47126
rclavicle 1.29011e-013 -3.02153e-014
rhumerus -40.4867 -21.1138 -71.7323
rradius 28.32
rwrist 5.9329
rhand -12.3117 10.742
rfingers 7.12502
rthumb 13.7566 -18.7832
lclavicle 1.29011e-013 -3.02153e-014
lhumerus -27.1312 5.53198 86.3156
lradius 31.3106
lwrist -6.56568
lhand -15.529 28.6349
lfingers 7.12502
lthumb 10.6546 58.3448
rfemur -23.6445 3.86286 19.6664
rtibia 20.4602
rfoot -2.20425 -1.52271
rtoes 1.86959
lfemur 6.04719 -3.89858 -26.5939
ltibia 33.6803
lfoot -2.68939 -10.1175
ltoes -9.88283
260
root -0.0189894 17.4236 6.63893 2.53654 39.8287 1.80234
lowerback 4.29858 -2.42981 -3.77589
upperback -0.60061 -3.34709 3.18291
thorax -2.62344 -1.58973 5.63218
lowerneck -14.7443 -2.86552 -9.73182
upperneck 25.2057 -2.09244 2.78718
head 10.7038 -1.50187 2.3721
rclavicle -4.67144e-015 -1.74931e-014
rhumerus -40.4651 -20.9416 -71.5488
rradius 27.9895
rwrist 6.57023
rhand -13.4846 11.721
rfingers 7.12502
rthumb 12.6261 -17.8774
lclavicle -4.67144e-015 -1.74931e-014
lhumerus -27.1871 6.13206 86.4583
lradius 30.9391
lwrist -6.99943
lhand -15.3756 27.7311
lfingers 7.12502
lthumb 10.8025 57.4333
rfemur -23.1309 3.99952 20.4766
rtibia 20.9753
rfoot -2.35323 -0.950144
rtoes 6.37441
lfemur 5.0385 -3.61827 -25.6373
ltibia 35.7873
lfoot 0.069746 -11.0969
ltoes -11.1371
261
root 0.0686577 17.4321 6.78248 2.39275 39.7441 1.68797
lowerback 4.37928 -2.359 -3.71673
upperback -0.629077 -3.25012 3.21146
thorax -2.71191 -1.53852 5.62912
lowerneck -14.7168 -2.85878 -9.57836
upperneck 25.2039 -2.08234 2.6266
head 10.6935 -1.50155 2.28966
rclavicle -2.45499e-014 1.27222e-014
rhumerus -40.4803 -20.3444 -71.8139
rradius 27.9427
rwrist 6.46384
rhand -14.0761 12.0316
rfingers 7.12502
rthumb 12.0557 -17.6011
lclavicle -2.45499e-014 1.27222e-014
lhumerus -27.2767 7.21788 86.1956
lradius 30.2473
lwrist -8.30153
lhand -15.8873 26.8824
lfingers 7.12502
lthumb 10.3089 56.6097
rfemur -22.6851 3.89237 20.7849
rtibia 21.3576
rfoot -2.44073 0.310104
rtoes 8.76889
lfemur 3.90804 -3.44936 -25.208
ltibia 37.8198
lfoot 3.29848 -12.015
ltoes -10.9766
262
root 0.148156 17.4372 6.91957 2.12034 39.5757 1.25757
lowerback 4.57128 -2.22067 -3.39674
upperback -0.784173 -3.04944 3.23516
thorax -3.02043 -1.43068 5.47713
lowerneck -14.5052 -2.88432 -9.46503
upperneck 25.1539 -2.1614 2.59257
head 10.6367 -1.53029 2.2483
rclavicle -4.28132e-014 0
rhumerus -40.8023 -20.124 -71.8965
rradius 27.986
rwrist 6.81652
rhand -14.3185 12.3859
rfingers 7.12502
rthumb 11.822 -17.2604
lclavicle -4.28132e-014 0
lhumerus -27.7393 7.25194 86.071
lradius 30.0965
lwrist -8.33322
lhand -15.771 26.5668
lfingers 7.12502
lthumb 10.421 56.2885
rfemur -22.4091 3.84603 21.383
rtibia 21.8265
rfoot -2.53423 0.914031
rtoes 9.9537
lfemur 2.71309 -3.26001 -24.5093
ltibia 39.5771
lfoot 6.88785 -12.9639
ltoes -11.3621
263
root 0.237784 17.4526 7.07884 1.60491 39.5684 0.764548
lowerback 4.56828 -2.09561 -3.1691
upperback -0.730129 -2.86498 3.34193
thorax -2.98993 -1.34302 5.44688
lowerneck -14.4148 -2.90509 -9.49792
upperneck 25.0125 -2.21125 2.66176
head 10.5712 -1.54533 2.27103
rclavicle 1.00411e-013 2.14687e-014
rhumerus -40.8071 -20.2002 -71.7462
rradius 27.8366
rwrist 7.71407
rhand -14.9849 13.2578
rfingers 7.12502
rthumb 11.1793 -16.4243
lclavicle 1.00411e-013 2.14687e-014
lhumerus -28.1038 6.88439 86.2478
lradius 30.1999
lwrist -7.97946
lhand -15.2316 26.495
lfingers 7.12502
lthumb 10.9414 56.1899
rfemur -21.5531 3.72868 22.0699
rtibia 21.9995
rfoot -2.81013 0.56501
rtoes 9.00847
lfemur 1.69793 -3.1324 -23.7215
ltibia 41.4619
lfoot 10.1104 -14.4724
ltoes -11.471
264
root 0.355803 17.4844 7.26057 1.67254 40.1885 1.40373
lowerback 4.36159 -2.20911 -3.6527
upperback -0.630789 -3.04467 3.23882
thorax -2.73085 -1.43576 5.6096
lowerneck -14.5006 -2.91804 -9.89332
upperneck 25.1827 -2.18214 2.91791
head 10.6584 -1.54157 2.43564
rclavicle 7.89175e-014 -2.38542e-015
rhumerus -40.772 -19.908 -71.657
rradius 27.8668
rwrist 7.62376
rhand -15.2941 13.5868
rfingers 7.12502
rthumb 10.8811 -16.1113
lclavicle 7.89175e-014 -2.38542e-015
lhumerus -28.3854 7.23969 86.3432
lradius 29.9493
lwrist -8.2911
lhand -15.2233 26.7509
lfingers 7.12502
lthumb 10.9494 56.4454
rfemur -20.397 2.60941 21.8059
rtibia 22.2493
rfoot -3.36381 0.410799
rtoes 10.3712
lfemur 1.13886 -3.48801 -23.9319
ltibia 42.9447
lfoot 13.1282 -16.2825
ltoes -8.9285
265
root 0.410474 17.4982 7.36395 1.00027 39.5247 -0.113255
lowerback 4.7725 -1.88902 -2.49089
upperback -0.913034 -2.53976 3.54598
thorax -3.35201 -1.17717 5.27116
lowerneck -14.5877 -2.94144 -10.0397
upperneck 25.3247 -2.19099 3.01708
head 10.7323 -1.54979 2.49651
rclavicle -1.31695e-015 -3.18055e-015
rhumerus -40.8633 -19.6825 -71.6973
rradius 28.023
rwrist 7.19213
rhand -14.3493 12.875
rfingers 7.12502
rthumb 11.7922 -16.773
lclavicle -1.31695e-015 -3.18055e-015
lhumerus -28.7212 7.18134 86.5119
lradius 29.9491
lwrist -8.267
lhand -15.1786 28.5595
lfingers 7.12502
lthumb 10.9925 58.2517
rfemur -20.3865 3.62712 23.2308
rtibia 22.2379
rfoot -3.25307 0.31507
rtoes 11.4195
lfemur -0.795144 -3.01913 -22.3601
ltibia 44.8233
lfoot 15.8611 -17.4011
ltoes -6.0534
266
root 0.550931 17.5192 7.54557 1.01287 40.6822 0.460812
lowerback 4.18782 -2.1674 -2.67303
upperback -0.67563 -2.92666 3.35271
thorax -2.73573 -1.38907 5.15871
lowerneck -14.7997 -3.00688 -9.89522
upperneck 25.5696 -2.25883 2.8865
head 10.8668 -1.58588 2.41749
rclavicle 6.25923e-014 -2.70347e-014
rhumerus -40.748 -19.3953 -71.8082
rradius 28.0316
rwrist 6.89857
rhand -13.4971 12.0111
rfingers 7.12502
rthumb 12.614 -17.588
lclavicle 6.25923e-014 -2.70347e-014
lhumerus -28.7943 7.07229 86.7329
lradius 29.7739
lwrist -8.29049
lhand -14.676 29.3531
lfingers 7.12502
lthumb 11.4772 59.019
rfemur -18.9158 1.6294 22.9119
rtibia 22.1831
rfoot -4.2777 1.81476
rtoes 8.35801
lfemur -1.37849 -3.94852 -22.7639
ltibia 46.4423
lfoot 17.862 -18.9288
ltoes -1.81459
267
root 0.633251 17.5366 7.69059 0.34592 40.601 -0.503698
lowerback 4.18148 -2.03913 -2.05004
upperback -0.639883 -2.71302 3.58756
thorax -2.73531 -1.28957 5.03782
lowerneck -14.9267 -3.13191 -10.0544
upperneck 25.6611 -2.41482 3.01974
head 10.9422 -1.65744 2.47146
rclavicle 3.77194e-014 -2.8625e-014
rhumerus -40.5344 -19.1075 -71.9353
rradius 27.9193
rwrist 7.03613
rhand -14.0896 12.481
rfingers 7.12502
rthumb 12.0427 -17.1525
lclavicle 3.77194e-014 -2.8625e-014
lhumerus -28.8318 7.19938 86.8701
lradius 29.4401
lwrist -8.73342
lhand -14.4857 28.243
lfingers 7.12502
lthumb 11.6608 57.8985
rfemur -18.0342 1.58532 23.9468
rtibia 21.7743
rfoot -4.2888 1.8595
rtoes 8.04621
lfemur -2.91595 -3.92251 -21.7734
ltibia 48.5851
lfoot 18.9243 -18.5961
ltoes 2.12105
